<?xml version="1.0" standalone="no"?>
<!DOCTYPE svg PUBLIC "-//W3C//DTD SVG 20010904//EN"
 "http://www.w3.org/TR/2001/REC-SVG-20010904/DTD/svg10.dtd">
<svg version="1.0" xmlns="http://www.w3.org/2000/svg"
 width="250.000000pt" height="100.000000pt" viewBox="0 0 250.000000 100.000000"
 preserveAspectRatio="xMidYMid meet">

<g transform="translate(0.000000,100.000000) scale(0.100000,-0.100000)"
fill="#000000" stroke="none">
<path d="M0 500 l0 -500 1250 0 1250 0 0 500 0 500 -1250 0 -1250 0 0 -500z
m180 411 c0 -9 -7 -38 -15 -64 -15 -51 -17 -50 38 -61 17 -4 27 -13 27 -24 0
-27 -31 -112 -40 -112 -15 0 -170 111 -170 121 0 6 20 37 45 69 49 64 53 76
30 106 -25 34 -16 36 35 8 28 -15 50 -34 50 -43z m634 30 l-17 -29 51 -68 c29
-38 52 -72 52 -75 0 -12 -169 -121 -179 -115 -6 4 -18 32 -28 62 -19 62 -13
74 40 74 32 0 32 4 11 77 -9 30 -14 56 -12 57 30 21 76 46 86 46 10 0 9 -7 -4
-29z m-364 -236 c0 -102 -4 -185 -8 -185 -24 0 -131 44 -174 71 -57 37 -59 50
-22 146 37 97 35 95 105 125 106 45 99 56 99 -157z m114 157 l69 -27 34 -94
c19 -52 32 -100 29 -107 -9 -23 -98 -77 -160 -95 -33 -10 -62 -19 -63 -19 -2
0 -3 83 -3 185 0 142 3 185 13 185 6 -1 43 -13 81 -28z m473 -97 c30 -112 34
-125 43 -120 4 3 16 40 26 83 10 42 23 80 29 84 18 13 78 9 72 -4 -2 -7 -23
-78 -47 -158 -23 -80 -46 -152 -51 -161 -13 -25 -61 -34 -75 -14 -7 9 -29 84
-49 167 -37 147 -38 151 -19 165 35 26 57 12 71 -42z m296 -90 c-2 -151 -7
-165 -60 -165 -23 0 -23 0 -23 148 0 82 3 152 7 156 4 4 23 6 42 4 l35 -3 -1
-140z m167 110 c0 -19 5 -35 11 -35 6 0 29 16 50 35 26 24 49 35 69 35 38 0
38 -13 0 -57 -30 -33 -30 -34 -14 -71 40 -93 52 -130 47 -136 -11 -11 -70 -6
-80 7 -5 6 -16 32 -23 56 -25 79 -60 64 -60 -26 0 -49 -2 -53 -24 -53 -13 0
-31 -3 -40 -6 -14 -5 -16 10 -16 133 0 77 3 143 7 146 3 4 21 7 40 7 31 0 33
-2 33 -35z m308 -97 l-3 -133 -37 -3 -38 -3 0 129 c0 71 3 132 7 135 3 4 21 7
40 7 l34 0 -3 -132z m157 126 c9 -4 33 -32 53 -63 l37 -56 3 50 c4 59 16 77
50 73 l24 -3 -1 -145 c-1 -80 -6 -149 -12 -155 -16 -16 -41 7 -84 79 -50 83
-65 85 -65 8 0 -32 -2 -61 -5 -64 -3 -3 -20 -2 -38 1 l-32 7 0 129 c-1 72 1
133 3 138 4 9 44 9 67 1z m438 -11 c8 -10 17 -31 19 -48 2 -25 0 -30 -17 -28
-98 12 -115 0 -115 -81 0 -69 8 -94 32 -102 29 -9 42 9 40 58 -2 48 7 58 51
49 l32 -7 -3 -74 c-3 -63 -7 -79 -27 -99 -23 -24 -26 -24 -79 -11 -40 9 -66
23 -91 48 l-35 35 0 106 c0 105 0 105 32 138 29 30 38 33 88 33 42 0 61 -5 73
-17z m-1763 -287 c-17 -41 -24 -47 -43 -43 -12 3 -39 9 -59 12 -46 9 -42 19
14 34 24 6 57 22 73 35 38 31 41 22 15 -38z m-346 35 c9 -10 38 -24 64 -31 65
-18 70 -26 20 -34 -24 -4 -52 -9 -64 -12 -17 -4 -24 2 -37 38 -10 24 -17 47
-17 51 0 13 17 7 34 -12z m-24 -101 c19 -38 36 -70 38 -70 3 0 36 18 74 40 39
22 72 40 75 40 3 0 37 -18 75 -40 39 -22 72 -40 74 -40 2 0 20 32 39 70 37 73
55 82 55 27 0 -18 15 -59 34 -92 l33 -60 -29 -47 c-17 -27 -33 -46 -38 -43 -4
2 -13 19 -21 37 -13 32 -13 32 -20 8 -4 -14 -8 -43 -8 -65 -1 -34 -11 -52 -63
-113 l-62 -73 -13 25 c-8 15 -16 26 -18 26 -2 0 -12 -15 -21 -32 l-17 -33 -15
33 c-18 37 -28 40 -37 12 -10 -32 -26 -23 -84 47 -48 58 -54 71 -58 124 -3 32
-9 59 -13 59 -4 0 -13 -13 -20 -30 -7 -17 -15 -30 -19 -30 -3 0 -19 21 -35 47
l-28 47 30 56 c17 31 34 75 38 98 4 23 10 42 13 42 4 0 22 -31 41 -70z m1067
-197 c3 -8 -6 -10 -30 -6 -33 5 -67 -14 -67 -37 0 -19 50 -42 76 -36 19 5 25
3 22 -6 -7 -19 -66 -22 -94 -3 -32 21 -33 68 -1 90 25 18 88 17 94 -2z m121
-15 c7 -7 12 -24 12 -38 0 -35 -17 -50 -57 -50 -24 0 -37 7 -49 25 -15 23 -15
27 0 50 18 28 72 35 94 13z m152 -39 c0 -27 -4 -49 -10 -49 -5 0 -10 19 -10
41 0 36 -2 40 -15 29 -8 -7 -15 -25 -15 -41 0 -16 -4 -29 -10 -29 -5 0 -10 19
-10 41 0 36 -2 40 -15 29 -8 -7 -15 -25 -15 -41 0 -16 -4 -29 -10 -29 -5 0
-10 22 -10 48 l0 48 60 1 60 1 0 -49z m134 19 c13 -37 -16 -71 -56 -66 -24 4
-28 1 -28 -19 0 -13 -4 -23 -10 -23 -6 0 -10 29 -10 68 l0 69 47 -1 c42 -1 49
-4 57 -28z m124 -10 c2 -21 7 -38 13 -38 5 0 9 -4 9 -8 0 -12 -92 -13 -110 -2
-23 15 1 44 41 50 23 4 30 8 21 14 -7 4 -24 5 -38 2 -13 -4 -24 -3 -24 2 0 17
15 23 50 20 33 -3 35 -5 38 -40z m142 22 c16 -29 13 -80 -5 -80 -10 0 -15 10
-15 34 0 38 -10 49 -34 40 -10 -4 -16 -18 -16 -40 0 -24 -5 -34 -15 -34 -11 0
-15 12 -15 49 l0 48 45 1 c34 1 47 -3 55 -18z m79 -17 l19 -38 18 38 c10 20
24 37 32 37 9 0 4 -17 -19 -57 -18 -32 -37 -64 -42 -70 -11 -15 -47 -17 -47
-3 0 6 7 10 15 10 26 0 28 26 6 69 -24 46 -25 51 -11 51 5 0 18 -17 29 -37z"/>
<path d="M408 290 c-55 -30 -54 -40 2 -23 45 13 56 13 97 -1 26 -9 48 -14 50
-12 6 5 -87 56 -101 56 -6 -1 -28 -10 -48 -20z"/>
<path d="M1390 215 c-10 -12 -10 -18 0 -30 7 -8 18 -15 25 -15 7 0 18 7 25 15
10 12 10 18 0 30 -7 8 -18 15 -25 15 -7 0 -18 -7 -25 -15z"/>
<path d="M1672 218 c-18 -18 -15 -36 9 -43 25 -8 42 6 37 31 -4 23 -29 29 -46
12z"/>
<path d="M1805 189 c-4 -6 -5 -13 -2 -16 8 -7 47 7 47 18 0 13 -37 11 -45 -2z"/>
</g>
</svg>
